<svg width="29" height="25" viewBox="0 0 29 25" fill="none" xmlns="http://www.w3.org/2000/svg">
<path d="M27.681 25L29 23.59L24.7155 19L29 14.41L27.681 13L22.0681 19L27.681 25Z" fill="#555555"/>
<path d="M21.5161 25L22.8352 23.59L18.5506 19L22.8352 14.41L21.5161 13L15.9032 19L21.5161 25Z" fill="#555555"/>
<path d="M11.7777 25L13.0968 23.59L8.81224 19L13.0968 14.41L11.7777 13L6.16483 19L11.7777 25Z" fill="#CDCDCD"/>
<path d="M5.6129 25L6.93194 23.59L2.64742 19L6.93194 14.41L5.6129 13L0 19L5.6129 25Z" fill="#CDCDCD"/>
<path d="M22.8352 10.59L18.5506 6L22.8352 1.41L21.5161 0L15.9032 6L21.5161 12L22.8352 10.59Z" fill="#555555"/>
<path d="M6.93194 10.59L2.64742 6L6.93194 1.41L5.6129 0L0 6L5.6129 12L6.93194 10.59Z" fill="#CDCDCD"/>
</svg>
