<svg width="40" height="40" viewBox="0 0 40 40" fill="none" xmlns="http://www.w3.org/2000/svg">
<path d="M22.0562 0C24.3062 0.006 25.4482 0.018 26.4342 0.046L26.8222 0.0599999C27.2702 0.0759999 27.7122 0.0959999 28.2462 0.12C30.3742 0.22 31.8262 0.556 33.1002 1.05C34.4202 1.558 35.5322 2.246 36.6442 3.356C37.6615 4.35546 38.4485 5.56494 38.9502 6.9C39.4442 8.174 39.7802 9.626 39.8802 11.756C39.9042 12.288 39.9242 12.73 39.9402 13.18L39.9522 13.568C39.9822 14.552 39.9942 15.694 39.9982 17.944L40.0002 19.436V22.056C40.005 23.5148 39.9897 24.9736 39.9542 26.432L39.9422 26.82C39.9262 27.27 39.9062 27.712 39.8822 28.244C39.7822 30.374 39.4422 31.824 38.9502 33.1C38.4485 34.4351 37.6615 35.6445 36.6442 36.644C35.6447 37.6614 34.4352 38.4484 33.1002 38.95C31.8262 39.444 30.3742 39.78 28.2462 39.88L26.8222 39.94L26.4342 39.952C25.4482 39.98 24.3062 39.994 22.0562 39.998L20.5642 40H17.9462C16.4867 40.0051 15.0272 39.9898 13.5682 39.954L13.1802 39.942C12.7054 39.924 12.2307 39.9034 11.7562 39.88C9.62816 39.78 8.17616 39.444 6.90016 38.95C5.56582 38.4481 4.35705 37.6611 3.35816 36.644C2.34005 35.6447 1.55238 34.4352 1.05016 33.1C0.556161 31.826 0.220161 30.374 0.120161 28.244L0.060161 26.82L0.0501612 26.432C0.0132933 24.9736 -0.00337515 23.5148 0.000161031 22.056V17.944C-0.00537476 16.4852 0.00929347 15.0264 0.0441612 13.568L0.0581611 13.18C0.0741611 12.73 0.0941611 12.288 0.118161 11.756C0.218161 9.626 0.554161 8.176 1.04816 6.9C1.55155 5.5644 2.34061 4.35487 3.36016 3.356C4.35847 2.3391 5.56654 1.55215 6.90016 1.05C8.17616 0.556 9.62616 0.22 11.7562 0.12C12.2882 0.0959999 12.7322 0.0759999 13.1802 0.0599999L13.5682 0.0479999C15.0265 0.0124654 16.4854 -0.0028694 17.9442 0.00199986L22.0562 0ZM20.0002 10C17.348 10 14.8045 11.0536 12.9291 12.9289C11.0537 14.8043 10.0002 17.3478 10.0002 20C10.0002 22.6522 11.0537 25.1957 12.9291 27.0711C14.8045 28.9464 17.348 30 20.0002 30C22.6523 30 25.1959 28.9464 27.0712 27.0711C28.9466 25.1957 30.0002 22.6522 30.0002 20C30.0002 17.3478 28.9466 14.8043 27.0712 12.9289C25.1959 11.0536 22.6523 10 20.0002 10ZM20.0002 14C20.7881 13.9999 21.5683 14.1549 22.2963 14.4563C23.0243 14.7577 23.6858 15.1996 24.2431 15.7567C24.8003 16.3137 25.2424 16.9751 25.5441 17.703C25.8457 18.4309 26.001 19.2111 26.0012 19.999C26.0013 20.7869 25.8462 21.5672 25.5448 22.2952C25.2434 23.0232 24.8016 23.6847 24.2445 24.2419C23.6875 24.7992 23.0261 25.2412 22.2982 25.5429C21.5703 25.8445 20.7901 25.9999 20.0022 26C18.4109 26 16.8847 25.3679 15.7595 24.2426C14.6343 23.1174 14.0022 21.5913 14.0022 20C14.0022 18.4087 14.6343 16.8826 15.7595 15.7574C16.8847 14.6321 18.4109 14 20.0022 14M30.5022 7C29.8391 7 29.2032 7.26339 28.7344 7.73223C28.2656 8.20107 28.0022 8.83696 28.0022 9.5C28.0022 10.163 28.2656 10.7989 28.7344 11.2678C29.2032 11.7366 29.8391 12 30.5022 12C31.1652 12 31.8011 11.7366 32.2699 11.2678C32.7388 10.7989 33.0022 10.163 33.0022 9.5C33.0022 8.83696 32.7388 8.20107 32.2699 7.73223C31.8011 7.26339 31.1652 7 30.5022 7Z" fill="white"/>
</svg>
